HIERARCHY
ROOT Hips
{
	OFFSET 0.000000 0.000000 0.000000
	CHANNELS 6 Xposition Yposition Zposition Xrotation Yrotation Zrotation
	JOINT C_ctrl
	{
		OFFSET 0.000000 35.040482 -0.000011
		CHANNELS 3 Xrotation Yrotation Zrotation
		JOINT Bip01
		{
			OFFSET -41.537640 41.789009 -0.000007
			CHANNELS 3 Xrotation Yrotation Zrotation
			JOINT Bip01_Pelvis
			{
				OFFSET -2.462887 0.000000 0.000000
				CHANNELS 3 Xrotation Yrotation Zrotation
				JOINT BN_Tail_01
				{
					OFFSET -11.399368 7.351341 -0.000013
					CHANNELS 3 Xrotation Yrotation Zrotation
					JOINT BN_Tail_02
					{
						OFFSET -11.365196 -0.343025 0.000012
						CHANNELS 3 Xrotation Yrotation Zrotation
						JOINT BN_Tail_03
						{
							OFFSET -15.076256 -0.454979 0.000017
							CHANNELS 3 Xrotation Yrotation Zrotation
							JOINT BN_Tail_04
							{
								OFFSET -17.395691 -0.525002 0.000016
								CHANNELS 3 Xrotation Yrotation Zrotation
								JOINT BN_Tail_05
								{
									OFFSET -16.699837 -0.504005 0.000016
									CHANNELS 3 Xrotation Yrotation Zrotation
									End Site
									{
										OFFSET 0.503998 -16.699829 0.000067
									}
								}
							}
						}
					}
				}
				JOINT Bip01_Spine
				{
					OFFSET 8.297798 5.916809 -0.000020
					CHANNELS 3 Xrotation Yrotation Zrotation
					JOINT Bip01_R_Thigh
					{
						OFFSET -8.297779 -5.916794 10.541781
						CHANNELS 3 Xrotation Yrotation Zrotation
						JOINT Bip01_R_Calf
						{
							OFFSET 5.631542 -22.906792 0.862690
							CHANNELS 3 Xrotation Yrotation Zrotation
							JOINT Bip01_R_HorseLink
							{
								OFFSET -16.984341 -19.231926 -3.555767
								CHANNELS 3 Xrotation Yrotation Zrotation
								JOINT Bip01_R_Foot
								{
									OFFSET 4.290367 -24.783146 0.578056
									CHANNELS 3 Xrotation Yrotation Zrotation
									JOINT Bip01_R_Toe0
									{
										OFFSET 3.561211 -5.815116 0.760802
										CHANNELS 3 Xrotation Yrotation Zrotation
										JOINT Bip01_R_Toe0Nub
										{
											OFFSET 16.135469 0.002017 1.534789
											CHANNELS 3 Xrotation Yrotation Zrotation
											End Site
											{
												OFFSET -0.000002 16.208284 -0.000056
											}
										}
									}
								}
							}
						}
					}
					JOINT Bip01_L_Thigh
					{
						OFFSET -8.297813 -5.916832 -10.541739
						CHANNELS 3 Xrotation Yrotation Zrotation
						JOINT Bip01_L_Calf
						{
							OFFSET 5.631535 -22.906792 -0.862625
							CHANNELS 3 Xrotation Yrotation Zrotation
							JOINT Bip01_L_HorseLink
							{
								OFFSET -16.984318 -19.231949 3.555875
								CHANNELS 3 Xrotation Yrotation Zrotation
								JOINT Bip01_L_Foot
								{
									OFFSET 4.290367 -24.783169 -0.577965
									CHANNELS 3 Xrotation Yrotation Zrotation
									JOINT Bip01_L_Toe0
									{
										OFFSET 3.561245 -5.815111 -0.760799
										CHANNELS 3 Xrotation Yrotation Zrotation
										JOINT Bip01_L_Toe0Nub
										{
											OFFSET 6.574303 -0.000005 -1.538561
											CHANNELS 3 Xrotation Yrotation Zrotation
											End Site
											{
												OFFSET 0.000004 -6.751935 0.000023
											}
										}
									}
								}
							}
						}
					}
					JOINT Bip01_Spine1
					{
						OFFSET 20.556803 -4.626213 -0.000025
						CHANNELS 3 Xrotation Yrotation Zrotation
						JOINT Saddle
						{
							OFFSET 17.608810 18.174690 -0.000143
							CHANNELS 3 Xrotation Yrotation Zrotation
							End Site
							{
								OFFSET -0.000063 -0.000061 -22.448387
							}
						}
						JOINT BN_center
						{
							OFFSET 10.743275 -13.417107 -0.172041
							CHANNELS 3 Xrotation Yrotation Zrotation
							End Site
							{
								OFFSET 22.434088 0.553078 -0.579614
							}
						}
						JOINT Bip01_Spine2
						{
							OFFSET 24.765072 -2.054115 -0.000032
							CHANNELS 3 Xrotation Yrotation Zrotation
							JOINT Handle
							{
								OFFSET 63.735676 16.430748 -16.052464
								CHANNELS 3 Xrotation Yrotation Zrotation
								JOINT IK_Chain01
								{
									OFFSET -4.713058 -6.020439 0.185448
									CHANNELS 3 Xrotation Yrotation Zrotation
									End Site
									{
										OFFSET -0.000023 -0.000023 -7.648071
									}
								}
							}
							JOINT BN_hair04_01
							{
								OFFSET 1.987491 16.256981 -2.049672
								CHANNELS 3 Xrotation Yrotation Zrotation
								JOINT BN_hair04_02
								{
									OFFSET -1.318762 -3.831451 -6.174704
									CHANNELS 3 Xrotation Yrotation Zrotation
									JOINT BN_hair04_03
									{
										OFFSET -0.827490 -5.886627 -5.656666
										CHANNELS 3 Xrotation Yrotation Zrotation
										End Site
										{
											OFFSET -2.658262 5.010620 -5.929780
										}
									}
								}
							}
							JOINT Bip01_Neck
							{
								OFFSET 25.574577 9.433014 -0.000084
								CHANNELS 3 Xrotation Yrotation Zrotation
								JOINT Bip01_R_Clavicle
								{
									OFFSET -16.535652 0.011192 6.705692
									CHANNELS 3 Xrotation Yrotation Zrotation
									JOINT Bip01_R_UpperArm
									{
										OFFSET 20.272621 -12.959984 2.510816
										CHANNELS 3 Xrotation Yrotation Zrotation
										JOINT Bip01_R_Forearm
										{
											OFFSET -13.633509 -15.503704 -0.653585
											CHANNELS 3 Xrotation Yrotation Zrotation
											JOINT Bip01_R_Hand
											{
												OFFSET 2.580030 -27.804676 -1.136415
												CHANNELS 3 Xrotation Yrotation Zrotation
												JOINT Bip01_R_Finger0
												{
													OFFSET -0.281744 -19.659061 -0.398649
													CHANNELS 3 Xrotation Yrotation Zrotation
													JOINT Bip01_Xtra02
													{
														OFFSET 4.152210 -5.712314 0.433813
														CHANNELS 3 Xrotation Yrotation Zrotation
														JOINT Bip01_Xtra02Nub
														{
															OFFSET 15.457960 0.041654 0.507982
															CHANNELS 3 Xrotation Yrotation Zrotation
															End Site
															{
																OFFSET -15.421730 -0.157725 -1.163459
															}
														}
													}
													JOINT Bip01_R_Finger0Nub
													{
														OFFSET 8.362326 -9.718440 -0.143142
														CHANNELS 3 Xrotation Yrotation Zrotation
														End Site
														{
															OFFSET -1.213036 -0.198171 9.872291
														}
													}
												}
											}
										}
									}
								}
								JOINT Bip01_L_Clavicle
								{
									OFFSET -16.535673 0.011162 -6.705583
									CHANNELS 3 Xrotation Yrotation Zrotation
									JOINT Bip01_L_UpperArm
									{
										OFFSET 20.272615 -12.959999 -2.510836
										CHANNELS 3 Xrotation Yrotation Zrotation
										JOINT Bip01_L_Forearm
										{
											OFFSET -13.633495 -15.503681 0.653678
											CHANNELS 3 Xrotation Yrotation Zrotation
											JOINT Bip01_L_Hand
											{
												OFFSET 2.579988 -27.804686 1.136487
												CHANNELS 3 Xrotation Yrotation Zrotation
												JOINT Bip01_L_Finger0
												{
													OFFSET -0.281765 -19.659058 0.398696
													CHANNELS 3 Xrotation Yrotation Zrotation
													JOINT Bip01_Xtra01
													{
														OFFSET 4.083549 -5.738758 -0.666714
														CHANNELS 3 Xrotation Yrotation Zrotation
														JOINT Bip01_Xtra01Nub
														{
															OFFSET 6.758158 -0.395525 -0.023239
															CHANNELS 3 Xrotation Yrotation Zrotation
															End Site
															{
																OFFSET 6.764923 -0.254147 -0.029908
															}
														}
													}
													JOINT Bip01_L_Finger0Nub
													{
														OFFSET -0.012636 -9.629153 0.045740
														CHANNELS 3 Xrotation Yrotation Zrotation
														End Site
														{
															OFFSET 0.988407 0.004791 8.293357
														}
													}
												}
											}
										}
									}
								}
								JOINT BN_hair03_01
								{
									OFFSET -5.894140 16.270622 -2.498433
									CHANNELS 3 Xrotation Yrotation Zrotation
									JOINT BN_hair03_02
									{
										OFFSET -0.189278 -7.800507 -6.219162
										CHANNELS 3 Xrotation Yrotation Zrotation
										JOINT BN_hair03_03
										{
											OFFSET 0.612345 -10.844475 -3.370718
											CHANNELS 3 Xrotation Yrotation Zrotation
											End Site
											{
												OFFSET -2.273296 2.862007 -10.769416
											}
										}
									}
								}
								JOINT Bip01_Neck1
								{
									OFFSET 9.383755 11.908699 -0.000007
									CHANNELS 3 Xrotation Yrotation Zrotation
									JOINT BN_hair02_01
									{
										OFFSET 9.126320 18.808022 -1.420810
										CHANNELS 3 Xrotation Yrotation Zrotation
										JOINT BN_hair02_02
										{
											OFFSET 0.393478 -5.181091 -5.248574
											CHANNELS 3 Xrotation Yrotation Zrotation
											JOINT BN_hair02_03
											{
												OFFSET 0.762280 -8.167076 -0.230047
												CHANNELS 3 Xrotation Yrotation Zrotation
												End Site
												{
													OFFSET -0.025837 -1.251419 -8.109770
												}
											}
										}
									}
									JOINT Bip01_Head
									{
										OFFSET 14.266129 10.475403 -0.000008
										CHANNELS 3 Xrotation Yrotation Zrotation
										JOINT BN_Reins_01
										{
											OFFSET 18.547455 -15.740112 -0.000035
											CHANNELS 3 Xrotation Yrotation Zrotation
											JOINT BN_Reins_02
											{
												OFFSET -5.372810 -5.884506 0.000028
												CHANNELS 3 Xrotation Yrotation Zrotation
												JOINT BN_Reins_03
												{
													OFFSET -6.395866 -15.947449 0.000070
													CHANNELS 3 Xrotation Yrotation Zrotation
													JOINT BN_Halter_R_01
													{
														OFFSET -1.234055 -3.096100 7.096737
														CHANNELS 3 Xrotation Yrotation Zrotation
														End Site
														{
															OFFSET 10.514435 -4.176861 -0.000004
														}
													}
													JOINT BN_Halter_L_01
													{
														OFFSET -1.234062 -3.096146 -7.096726
														CHANNELS 3 Xrotation Yrotation Zrotation
														End Site
														{
															OFFSET -10.514435 4.176865 -0.000000
														}
													}
													JOINT BN_Reins_04
													{
														OFFSET -6.737644 -16.971684 0.000074
														CHANNELS 3 Xrotation Yrotation Zrotation
														JOINT BN_Halter_R_02
														{
															OFFSET -4.688869 -11.781956 7.096771
															CHANNELS 3 Xrotation Yrotation Zrotation
															End Site
															{
																OFFSET 14.669624 -5.827511 -0.000006
															}
														}
														JOINT BN_Halter_L_02
														{
															OFFSET -4.688892 -11.782017 -7.096693
															CHANNELS 3 Xrotation Yrotation Zrotation
															End Site
															{
																OFFSET -14.669624 5.827507 -0.000002
															}
														}
														JOINT BN_Reins_05
														{
															OFFSET -6.822578 -16.971161 0.000074
															CHANNELS 3 Xrotation Yrotation Zrotation
															JOINT BN_Reins_06
															{
																OFFSET -6.140354 -15.095148 0.000066
																CHANNELS 3 Xrotation Yrotation Zrotation
																End Site
																{
																	OFFSET -15.095150 6.140352 -0.000002
																}
															}
														}
													}
												}
											}
										}
										JOINT BN_hair01_01
										{
											OFFSET 8.957344 8.870956 0.112121
											CHANNELS 3 Xrotation Yrotation Zrotation
											JOINT BN_hair01_02
											{
												OFFSET 6.002075 -2.962952 -3.121264
												CHANNELS 3 Xrotation Yrotation Zrotation
												End Site
												{
													OFFSET 5.917702 3.813591 -2.232396
												}
											}
										}
										JOINT BN_Eyebrow_R
										{
											OFFSET 11.795959 -0.430496 4.449781
											CHANNELS 3 Xrotation Yrotation Zrotation
											JOINT Bip01_Xtra06Nub
											{
												OFFSET 2.936661 -0.262573 3.246701
												CHANNELS 3 Xrotation Yrotation Zrotation
												End Site
												{
													OFFSET 2.768745 0.208199 3.394807
												}
											}
										}
										JOINT BN_Eyebrow_L
										{
											OFFSET 11.586395 -0.445618 -4.441728
											CHANNELS 3 Xrotation Yrotation Zrotation
											JOINT Bip01_Xtra05Nub
											{
												OFFSET 3.244698 -0.349442 -4.416700
												CHANNELS 3 Xrotation Yrotation Zrotation
												End Site
												{
													OFFSET 3.053162 0.072495 -4.564033
												}
											}
										}
										JOINT Bip01_R_Ear_01
										{
											OFFSET 7.142960 7.567184 4.311657
											CHANNELS 3 Xrotation Yrotation Zrotation
											JOINT Bip01_Xtra04Nub
											{
												OFFSET 9.464531 9.264214 1.682953
												CHANNELS 3 Xrotation Yrotation Zrotation
												End Site
												{
													OFFSET 8.448181 10.159340 1.910823
												}
											}
										}
										JOINT Bip01__L_Ear_01
										{
											OFFSET 7.214943 7.717056 -4.356771
											CHANNELS 3 Xrotation Yrotation Zrotation
											JOINT Bip01_Xtra03Nub
											{
												OFFSET 9.230225 8.944366 -2.322746
												CHANNELS 3 Xrotation Yrotation Zrotation
												End Site
												{
													OFFSET 8.170288 9.841324 -2.643566
												}
											}
										}
										JOINT Bip01_Jaw
										{
											OFFSET 9.196068 -4.110695 -0.000013
											CHANNELS 3 Xrotation Yrotation Zrotation
											JOINT Bip01_Ponytail1Nub
											{
												OFFSET 10.976463 -21.082108 -0.000053
												CHANNELS 3 Xrotation Yrotation Zrotation
												End Site
												{
													OFFSET 11.247093 -20.938980 0.000113
												}
											}
										}
										JOINT Bip01_HeadNub
										{
											OFFSET 29.954575 -18.249489 -0.000063
											CHANNELS 3 Xrotation Yrotation Zrotation
											End Site
											{
												OFFSET -9.198448 -13.366348 0.000168
											}
										}
									}
								}
							}
						}
					}
				}
			}
		}
	}
}
MOTION
Frames: 4
Frame Time: 0.033333
0.000000 0.000000 0.000000 0.000008 0.000000 -0.000000 -0.000000 0.000000 -0.000000 0.000000 0.000000 -0.000006 0.143163 -5.516865 -4.661074 -3.710697 -4.764363 21.630941 -1.240606 -1.662116 15.004285 -3.831008 8.659614 26.122547 -3.055082 9.676621 16.570399 -1.851363 7.840535 7.731694 -0.923099 8.177177 12.402328 -7.944194 4.135499 9.231521 5.354903 -1.021624 -27.860357 0.803431 0.015468 -4.071371 3.893431 -5.322413 15.707296 0.000739 -0.000020 -0.003713 0.000101 -0.000137 0.000004 6.865633 -7.197884 -10.794076 -2.665391 0.169683 -13.558372 -1.379709 0.008641 -6.993355 -4.466965 1.026837 24.410321 -0.000887 0.000034 -0.003709 -0.012249 -0.009363 -0.036416 -0.720003 0.225526 0.906492 0.917530 -0.020778 6.784391 1.530343 -0.151065 -0.014733 -0.148404 -3.817026 -6.095250 0.000078 -0.000112 -0.000056 -0.000052 -0.014928 0.015042 2.158538 0.334464 -0.671681 6.099075 1.411561 -2.659860 14.414508 0.663650 -2.825022 -6.714113 5.030229 -6.150475 7.253709 -4.299977 6.373657 -7.251036 4.860352 -13.360585 0.544710 -1.581434 41.704087 7.802146 -3.303133 -42.955142 2.260028 0.447519 -31.494450 -1.007658 2.806047 -0.050676 -0.802245 0.160590 -0.479858 -0.804183 0.123485 -0.482639 7.110459 -3.723421 3.397033 4.355729 -0.790688 1.972047 -0.070012 -0.498255 -12.290607 -9.448446 -3.067601 7.194613 5.320382 0.026820 2.365852 0.662916 4.890282 -0.676870 0.036683 0.063820 2.451840 -0.000913 0.100573 2.451955 5.189252 -2.619115 3.911171 8.640007 -0.278045 3.779950 9.639651 -0.471882 7.452458 -4.879803 -0.957122 27.847164 8.756843 1.076786 -0.740890 24.599725 0.992957 -2.156520 19.134563 0.471016 -0.523887 -8.457573 -1.293861 52.459804 -0.000029 0.000323 33.480057 -0.441784 -0.458728 -72.796136 -0.000063 -0.000075 -21.993996 0.000020 -0.000008 -0.026805 0.000002 -0.000016 0.012747 -0.000099 -0.000110 -34.639892 0.000036 0.000016 0.015158 0.000027 -0.000008 0.012714 -0.000046 -0.000050 -24.223466 0.000015 -0.000011 -0.000051 0.614358 -0.240402 1.384451 8.182581 1.541180 10.401286 20.391637 -22.658205 -10.553378 0.024233 -0.029995 11.786648 -31.133891 5.015694 -19.869908 0.023239 -0.032294 11.715950 -0.841897 -0.256309 -13.315193 0.050278 0.015137 11.756003 -3.691041 -3.951162 -12.636073 0.050155 0.014792 11.743131 0.646587 0.597957 4.897258 -0.004465 -0.052605 11.750674 0.000071 -0.000033 11.750667 
0.000000 0.000000 0.000000 0.000008 0.000000 -0.000000 -0.000000 0.000000 -0.000000 0.000000 0.000000 -0.000006 0.075663 -6.191990 -5.324087 -4.285879 -5.661115 20.772472 -1.235945 -2.778568 13.410174 -3.170329 8.216508 24.706492 -2.732320 9.012733 15.213487 -2.118028 8.775849 8.698538 -1.034618 8.671206 13.109234 -7.864196 4.411785 8.073229 5.154993 -0.931917 -26.753993 0.788759 0.015696 -3.997042 4.092333 -5.300584 15.668896 0.000418 -0.000019 -0.003781 0.000101 -0.000137 0.000004 6.504065 -6.973178 -12.452494 -2.320425 0.111733 -11.787274 -1.440466 0.012901 -7.301848 -4.351973 1.061385 24.506159 -0.000887 0.000035 -0.003709 -0.012249 -0.009364 -0.036416 -0.730630 0.248316 0.868463 0.917530 -0.020778 6.784390 1.530397 -0.151064 -0.014734 -0.193195 -3.479360 -6.197351 0.000078 -0.000112 -0.000057 -0.000052 -0.014928 0.015042 3.058273 0.465473 -0.958904 6.563794 1.463960 -2.816391 14.863812 0.711274 -2.967969 -6.626880 4.831949 -5.601071 7.236683 -4.861217 1.536452 -5.312963 5.254930 0.110662 0.316010 -1.254761 31.965145 5.062615 -2.288970 -30.320685 0.638736 1.025507 -23.795843 -1.007393 2.774546 -0.051158 -0.802298 0.160588 -0.479866 -0.804182 0.123485 -0.482641 6.969737 -3.605665 2.829997 4.326395 -0.846249 3.113631 -0.099155 -0.603520 -14.953934 -9.173988 -3.296252 8.821031 5.319549 0.026296 2.355504 0.687302 4.856206 -0.678917 0.036737 0.063820 2.451839 -0.000913 0.100573 2.451955 6.150102 -2.390186 3.724125 10.444037 0.012096 3.378778 11.457268 -0.009849 6.930349 -5.841500 -0.649843 29.463418 9.515016 1.121330 -0.750837 26.818301 1.090813 -2.324202 21.113889 0.573578 -0.744419 -8.191400 0.589042 54.537923 -0.000029 0.000327 33.480061 -0.441785 -0.458725 -72.796129 -0.000060 -0.000076 -21.993998 0.000021 -0.000008 -0.026805 0.000005 -0.000016 0.012745 -0.000097 -0.000110 -34.639895 0.000034 0.000016 0.015168 0.000024 -0.000010 0.012725 -0.000049 -0.000052 -24.223462 0.000009 -0.000016 -0.000048 0.800757 -0.310506 1.805564 8.623777 1.493788 11.386485 20.277913 -22.619720 -10.516148 0.024263 -0.029981 11.786686 -31.011928 4.971294 -19.797402 0.023267 -0.032290 11.715906 -1.637583 -0.594052 -7.270143 0.050301 0.015185 11.756007 -3.194229 -2.629631 -6.656103 0.050180 0.014840 11.743117 0.646587 0.597961 4.892564 -0.004431 -0.052643 11.750678 0.000072 -0.000029 11.750674 
0.000000 0.000000 0.000000 0.000008 0.000000 -0.000000 -0.000000 0.000000 -0.000000 0.000000 0.000000 -0.000006 0.025788 -6.641386 -5.788795 -4.854440 -6.493886 19.942718 -1.286811 -3.837177 11.897281 -2.331054 7.583908 22.828874 -2.353200 8.113666 13.409513 -2.404185 9.715785 9.681991 -1.109588 8.876002 13.702783 -7.754682 4.730344 6.979875 4.966465 -0.851514 -25.718849 0.781716 0.015801 -3.961362 4.261554 -5.279827 15.597372 0.000124 -0.000019 -0.003844 0.000101 -0.000137 0.000004 6.205641 -6.700072 -13.878437 -2.021488 0.070330 -10.259117 -1.506830 0.017920 -7.638977 -4.247551 1.094857 24.558766 -0.000887 0.000034 -0.003709 -0.012249 -0.009364 -0.036416 -0.730387 0.320183 0.690056 0.917530 -0.020778 6.784391 1.530505 -0.151076 -0.014741 -0.241950 -3.039987 -6.443766 0.000078 -0.000112 -0.000056 -0.000052 -0.014928 0.015043 3.931680 0.588213 -1.239487 6.986471 1.510282 -2.959369 15.317717 0.758253 -3.112710 -6.419158 4.497172 -5.414713 7.055230 -5.153205 -2.273056 -4.022768 5.855214 13.475008 0.102271 -0.765428 18.914443 2.950717 -1.921519 -16.757237 -0.726634 1.315600 -17.080944 -1.007226 2.742700 -0.051648 -0.802407 0.160590 -0.479875 -0.804182 0.123485 -0.482642 6.721673 -3.324008 2.608441 4.352218 -1.002539 3.952102 -0.118752 -0.665310 -16.534537 -8.956740 -3.443249 9.898489 5.318077 0.028904 2.337921 0.711506 4.822403 -0.680662 0.036847 0.063821 2.451839 -0.000913 0.100573 2.451955 7.164019 -2.158622 3.523156 12.346521 0.308785 2.951141 13.297136 0.439671 6.388425 -6.900656 -0.306981 30.680318 10.232819 1.162113 -0.761233 28.914827 1.181594 -2.496424 23.113205 0.669334 -0.970586 -7.926426 2.766859 56.491576 -0.000028 0.000320 33.480061 -0.441783 -0.458726 -72.796129 -0.000061 -0.000074 -21.993996 0.000019 -0.000008 -0.026805 0.000000 -0.000015 0.012747 -0.000101 -0.000110 -34.639902 0.000036 0.000016 0.015163 0.000026 -0.000009 0.012720 -0.000048 -0.000052 -24.223469 0.000014 -0.000014 -0.000046 1.049931 -0.398805 2.367761 9.425978 1.428270 13.157968 20.120979 -22.569081 -10.463985 0.024328 -0.029967 11.786775 -30.802053 4.902233 -19.670479 0.023330 -0.032274 11.715815 -2.344447 -1.013172 -1.290163 0.050356 0.015281 11.756030 -2.799424 -1.287472 -0.763500 0.050230 0.014938 11.743100 0.646577 0.597934 4.887805 -0.004359 -0.052730 11.750684 0.000073 -0.000034 11.750675 
0.000000 0.000000 0.000000 0.000008 0.000000 -0.000000 -0.000000 0.000000 -0.000000 0.000000 0.000000 -0.000006 0.004232 -6.812449 -6.004745 -5.397087 -7.243085 19.166334 -1.384061 -4.805415 10.506183 -1.379786 6.746878 20.556533 -1.975495 6.998523 11.215799 -2.709267 10.656284 10.678972 -1.140239 8.749060 14.120714 -7.624962 5.095376 5.924874 4.790594 -0.780089 -24.759868 0.774626 0.015900 -3.925444 4.403656 -5.259483 15.492734 -0.000170 -0.000017 -0.003907 0.000101 -0.000137 0.000004 5.965714 -6.384104 -15.062140 -1.773439 0.042111 -8.994754 -1.576648 0.023637 -7.993790 -4.145454 1.137041 24.568616 -0.000887 0.000033 -0.003709 -0.012249 -0.009363 -0.036416 -0.720142 0.431798 0.378018 0.917530 -0.020778 6.784389 1.530290 -0.151053 -0.014735 -0.292898 -2.517385 -6.823839 0.000078 -0.000112 -0.000055 -0.000052 -0.014928 0.015042 4.763065 0.700998 -1.508109 7.365638 1.550695 -3.088179 15.776188 0.804548 -3.259250 -6.138483 4.057697 -5.514931 6.754377 -4.975913 -3.736563 -3.521320 5.950767 20.074729 0.033158 -0.476210 11.658868 2.184511 -1.981651 -9.985017 -1.297998 1.385851 -14.225129 -1.007012 2.710494 -0.052143 -0.802191 0.160591 -0.479847 -0.804182 0.123484 -0.482642 6.401150 -2.906808 2.658151 4.421050 -1.237758 4.404474 -0.124300 -0.681795 -16.958636 -8.801815 -3.517222 10.393991 5.312884 0.027775 2.317062 0.736348 4.787838 -0.682642 0.036628 0.063819 2.451840 -0.000913 0.100573 2.451955 8.210663 -1.933264 3.312595 14.309089 0.604849 2.495826 15.159431 0.875638 5.826705 -7.974423 0.086627 31.525971 10.917052 1.195802 -0.797120 30.836446 1.262304 -2.666529 24.809528 0.771980 -1.192603 -7.720672 5.078461 58.322972 -0.000030 0.000326 33.480068 -0.441787 -0.458729 -72.796143 -0.000060 -0.000074 -21.993998 0.000021 -0.000009 -0.026802 0.000007 -0.000018 0.012747 -0.000097 -0.000112 -34.639899 0.000033 0.000015 0.015166 0.000024 -0.000011 0.012720 -0.000051 -0.000054 -24.223462 0.000013 -0.000010 -0.000050 1.357998 -0.499725 3.054713 10.240715 1.387245 14.953864 19.922612 -22.503153 -10.398347 0.024199 -0.029999 11.786603 -30.493902 4.800135 -19.484281 0.023206 -0.032306 11.715997 -2.942873 -1.502882 4.545985 0.050264 0.015085 11.755995 -2.502355 0.051058 4.980468 0.050136 0.014757 11.743178 0.646543 0.597857 4.864398 -0.004500 -0.052563 11.750687 0.000071 -0.000035 11.750675 
